The Adventures of Tintin 2011 CaM XviD - ILLUMINATI
 
http://www.imdb.com/title/tt0983193/

Plot:
Tintin and Captain Haddock set off on a treasure 
hunt for a sunken ship commanded by Haddock's 
ancestor. But someone else is in search 
of the ship.

Sources:

Video - TNZ (720p Files) - Thanks Guys ;) :P
Audio - ILLUMINATI       - Thanks Bro  ;) :P

Info:

Video
ID                               : 0
Format                           : MPEG-4 Visual
Format profile                   : Advanced Simple@L5
Format settings, BVOP            : 2
Format settings, QPel            : No
Format settings, GMC             : No warppoints
Format settings, Matrix          : Default (H.263)
Codec ID                         : XVID
Codec ID/Hint                    : XviD
Duration                         : 1h 39mn
Bit rate                         : 1 892 Kbps
Width                            : 720 pixels
Height                           : 304 pixels
Display aspect ratio             : 2.35:1
Frame rate                       : 25.000 fps
Color space                      : YUV
Chroma subsampling               : 4:2:0
Bit depth                        : 8 bits
Scan type                        : Progressive
Compression mode                 : Lossy
Bits/(Pixel*Frame)               : 0.346
Stream size                      : 1.32 GiB (93%)

Audio
ID                               : 1
Format                           : MPEG Audio
Format version                   : Version 1
Format profile                   : Layer 3
Mode                             : Joint stereo
Mode extension                   : MS Stereo
Codec ID                         : 55
Codec ID/Hint                    : MP3
Duration                         : 1h 39mn
Bit rate mode                    : Constant
Bit rate                         : 128 Kbps
Channel(s)                       : 2 channels
Sampling rate                    : 44.1 KHz
Compression mode                 : Lossy
Stream size                      : 91.2 MiB (6%)
Alignment                        : Aligned on interleaves
Interleave, duration             : 40 ms (1.00 video frame)
Writing library                  : LAME3.98r
Encoding settings                : -m j -V 4 -q 2 -lowpass 17 -b 128

Release Notes:
The Adventures of Tintin 2011 CaM XviD - ILLUMINATI
So here we have it our release of Tin TIn.
Video is from the 720p files courtesy of TNZ so once
again guys a big thanks on another wonderful source 
top work guys :D :D
Audio is from "case" ;) ;) :P cheers bro for going the
xtra mile for the team and grabbing this nice cam audio
for us to use on this release :P :P

Done our normal thing in regards to running filters
tweaking RGB and adjusting a few other things

Njoy :P

Screens:
[IMG]http://i.imgur.com/O9YKJ.png[/IMG]
[IMG]http://i.imgur.com/5ANwF.png[/IMG]
[IMG]http://i.imgur.com/C5TgA.png[/IMG]
[IMG]http://i.imgur.com/bYrun.png[/IMG]
[IMG]http://i.imgur.com/YpR4w.png[/IMG]
[IMG]http://i.imgur.com/LETDf.png[/IMG]


Greets To All Doing There Thing To SUpport P2P And The Scene 
